<svg width="287" height="287" viewBox="0 0 287 287" fill="none" xmlns="http://www.w3.org/2000/svg">
<circle cx="143" cy="144" r="138" fill="#DBEAFE"/>
<mask id="mask0_1104_822" style="mask-type:alpha" maskUnits="userSpaceOnUse" x="5" y="6" width="276" height="276">
<circle cx="143" cy="144" r="138" fill="#F1F5F9"/>
</mask>
<g mask="url(#mask0_1104_822)">
<path d="M164.878 323.985C155.362 320.101 148.623 315.095 144.007 309.408C125.976 287.224 140.353 254.686 148.529 238.093C148.936 237.271 149.3 236.473 149.633 235.703C157.797 216.75 145.775 210.76 145.775 210.76C198.625 212.951 164.879 323.985 164.879 323.985L164.878 323.985Z" fill="#B6EB25"/>
<g opacity="0.25">
<path d="M164.878 323.986C155.362 320.102 148.623 315.095 144.007 309.408C165.061 279.607 155.659 249.095 149.632 235.704C157.796 216.751 145.774 210.761 145.774 210.761C198.623 212.952 164.878 323.986 164.878 323.986Z" fill="#102973"/>
</g>
<path d="M164.184 326.506C164.085 326.479 163.986 326.446 163.89 326.406C149.534 320.544 140.013 311.648 135.592 299.968C127.623 278.916 137.824 253.913 146.192 236.936C155.097 218.867 145.019 213.314 144.585 213.087C143.503 212.52 142.947 211.27 143.265 210.088C143.582 208.906 144.662 208.097 145.884 208.147C155.899 208.564 163.735 212.663 169.166 220.331C189.88 249.577 168.304 321.689 167.376 324.745C167.162 325.449 166.662 326.029 165.999 326.346C165.43 326.618 164.785 326.673 164.183 326.507L164.184 326.506ZM152.8 214.512C155.452 219.285 156.823 227.174 150.873 239.247C142.938 255.348 133.227 278.968 140.474 298.112C144.087 307.656 151.721 315.146 163.185 320.405C166.958 306.768 181.964 247.44 164.903 223.356C161.769 218.932 157.775 216.006 152.8 214.512Z" fill="#102973"/>
<path d="M354.619 324.09C340.083 361.977 278.893 355.959 260.079 305.484C223.176 296.1 205.476 276.212 202.931 273.149C202.714 272.89 202.607 272.753 202.607 272.753C206.762 317.193 236.43 347.949 236.43 347.949C221.886 350.401 210.012 350.971 200.349 350.029C200.314 350.025 200.284 350.023 200.262 350.017C131.493 343.229 174.977 259.496 163.387 228.883C159.605 218.882 150.544 212.579 141.275 208.631C128.325 203.12 114.966 202.204 114.966 202.204C80.7704 197.434 66.1664 183.002 61.6331 163.592C61.1078 161.344 60.7156 159.031 60.4491 156.656C60.4423 156.635 60.441 156.618 60.4412 156.599C60.4412 156.599 60.291 156.534 60.0219 156.417C60.0178 156.41 60.0063 156.406 60.0017 156.405C58.2699 155.616 51.8078 152.572 47.6227 148.973C46.8701 148.32 46.2322 147.554 45.7367 146.707C44.9319 145.322 44.4934 143.725 44.5039 142.089C44.5894 129.512 46.9211 118.108 51.0244 108.077L51.0276 108.065C66.2543 70.7967 105.844 52.4485 145.301 63.3554C183.175 72.1397 207.381 111.528 202.683 143.733L202.681 143.739C202.248 146.735 201.561 149.667 200.613 152.503C200.613 152.503 252.502 270.352 287.892 296.584C323.282 322.817 354.619 324.089 354.619 324.089L354.619 324.09Z" fill="#B6EB25"/>
<g opacity="0.25">
<path d="M236.43 347.949C221.886 350.401 210.012 350.971 200.349 350.029C200.315 350.026 200.284 350.024 200.262 350.018C200.199 350.006 200.17 350.004 200.17 350.004C200.17 350.004 223.459 348.356 208.243 327.315C193.028 306.273 195.08 271.459 199.431 245.045C199.431 245.045 201.067 259.915 202.932 273.149C202.714 272.89 202.607 272.753 202.607 272.753C206.762 317.194 236.43 347.949 236.43 347.949Z" fill="#102973"/>
</g>
<g opacity="0.25">
<path d="M192.76 222.797C171.06 193.787 141.275 208.628 141.275 208.628C128.325 203.117 114.966 202.201 114.966 202.201C80.7705 197.43 66.1665 182.999 61.6332 163.589C61.4588 160.286 61.3642 158.224 61.3642 158.224L78.5028 163.688C96.8803 201.732 172.116 209.909 199.127 152.472C186.774 187.018 192.759 222.796 192.759 222.796L192.76 222.797Z" fill="#102973"/>
</g>
<g opacity="0.25">
<path d="M86.0389 168.542C75.2487 164.349 66.8758 160.291 60.4507 156.655C60.3037 156.579 60.1629 156.498 60.0233 156.417C60.0191 156.41 60.0076 156.407 60.003 156.406C53.2522 152.553 48.6929 149.201 45.7392 146.707C44.9344 145.323 44.4958 143.726 44.5063 142.09C44.5919 129.513 46.9236 118.109 51.0269 108.078C48.5256 121.255 47.2435 138.028 58.2717 144.528C79.1141 156.803 108.99 171.87 124.883 163.578C124.883 163.578 121.947 182.492 86.0408 168.544L86.0389 168.542Z" fill="#102973"/>
</g>
<g opacity="0.49">
<path d="M354.619 324.091C353.304 327.512 351.612 330.578 349.597 333.284C341.585 332.399 314.861 327.9 285.303 305.991C249.914 279.752 198.023 161.909 198.023 161.909C206.681 136 193.526 102.4 167.852 84.1566C158.169 83.2818 147.236 78.6031 139.429 71.9237C99.3983 62.4916 59.9216 82.9031 46.6293 122.348C56.707 75.6483 101.092 51.1353 145.302 63.3564C186.7 72.9594 211.768 119.118 200.613 152.505C200.613 152.505 252.502 270.354 287.892 296.586C323.282 322.819 354.619 324.091 354.619 324.091Z" fill="white"/>
</g>
<path d="M71.2931 134.021C67.9206 135.073 66.8394 136.112 65.5804 135.327C63.8113 134.225 66.0856 130.638 69.105 128.799C72.1233 126.961 75.4409 126.903 76.5133 128.67C77.5858 130.437 75.0644 132.844 71.2931 134.021Z" fill="#102973"/>
<path d="M188.522 350.569C181.128 348.534 175.115 345.26 170.411 340.735C153.554 324.515 157.234 295.587 160.48 270.065C162.511 254.096 164.43 239.012 160.949 229.812C152.579 207.693 115.161 204.836 114.784 204.809C114.724 204.805 114.663 204.799 114.605 204.79C95.7999 202.168 82.0545 196.65 72.5859 187.915C64.4659 180.425 59.6955 170.749 58.0293 158.371C55.4544 157.157 49.834 154.318 45.9239 150.955C43.3413 148.733 41.8744 145.495 41.8988 142.072C42.0962 113.532 53.5346 89.239 74.1047 73.6658C94.189 58.4622 120.351 53.779 145.899 60.8098L145.945 60.8224C166.694 65.6569 184.95 79.7836 196.019 99.6C205.773 117.06 208.443 136.223 203.407 152.355C208.317 163.344 256.635 270.161 289.45 294.485C323.704 319.876 354.425 321.467 354.733 321.481C355.569 321.517 356.344 321.955 356.804 322.659C357.263 323.362 357.36 324.244 357.058 325.029C350.744 341.486 335.698 351.262 316.811 351.182C305.113 351.133 293.037 347.118 282.81 339.877C271.872 332.134 263.358 321.023 258.125 307.68C257.623 307.546 257.119 307.411 256.624 307.275C230.305 300.032 214.084 287.725 206.233 280.375C212.693 319.129 238.037 345.853 238.31 346.136C238.982 346.834 239.213 347.849 238.909 348.77C238.605 349.691 237.817 350.369 236.861 350.529C216.773 353.909 200.759 353.936 188.523 350.57L188.522 350.569ZM132.067 202.651C144.548 206.086 160.263 213.243 165.833 227.955C169.776 238.374 167.777 254.086 165.662 270.72C162.571 295.021 159.067 322.564 174.032 336.963C184.658 347.186 203.423 350.192 231.315 346.109C223.358 336.608 203.422 309.508 200.011 272.999C199.903 271.841 200.572 270.75 201.653 270.323C202.733 269.897 203.966 270.233 204.676 271.154C204.844 271.369 222.143 293.136 260.727 302.95C260.744 302.954 260.76 302.959 260.777 302.963C261.584 303.185 262.236 303.782 262.53 304.569C273.14 333.044 297.453 345.871 316.838 345.951C332.188 346.016 344.627 338.758 350.779 326.359C341.321 325.189 315.279 320.137 286.34 298.685C250.803 272.342 200.354 158.396 198.225 153.559C197.963 152.964 197.931 152.292 198.138 151.675C203.13 136.736 200.697 118.685 191.461 102.152C181.1 83.601 164.065 70.3883 144.709 65.9012C144.674 65.8929 144.65 65.8912 144.604 65.8748C144.575 65.8669 144.542 65.8577 144.512 65.8495C120.54 59.2523 96.0322 63.6178 77.2521 77.8345C58.0071 92.4032 47.3065 115.227 47.1197 142.103C47.1061 143.989 47.9119 145.769 49.3277 146.988C53.8289 150.861 61.4013 154.165 61.4765 154.197C62.3338 154.569 62.9284 155.371 63.033 156.302C65.8499 181.249 82.4381 195.009 115.24 199.6C116.347 199.681 123.432 200.276 132.066 202.652L132.067 202.651Z" fill="#102973"/>
<path d="M353.695 279.02C352.665 281.84 350.783 284.258 348.468 286.168C310.052 317.863 250.08 299.656 212.814 254.819C189.963 227.324 185.975 196.046 200.611 152.503C208.399 141.767 225.837 148.987 222.951 161.101C291.075 132.787 368.308 186.851 344.891 266.194C352.276 265.637 356.447 271.477 353.693 279.019L353.695 279.02Z" fill="#3B82F6"/>
<g opacity="0.25">
<path d="M346.775 217.596C352.031 295.769 242.96 271.848 217.712 210.066C217.712 210.066 226.008 256.122 271.567 275.239C322.968 296.807 346.759 262.884 346.759 262.884C346.759 262.884 351.305 232.237 346.775 217.596Z" fill="#102973"/>
</g>
<g opacity="0.49">
<path d="M353.694 279.02C353.278 280.158 352.725 281.229 352.059 282.227C351.557 277.624 346.624 268.404 341.216 268.814C364.635 189.467 288.649 141.605 220.528 169.914C223.411 157.801 205.973 150.585 198.186 161.319C197.445 163.532 196.748 165.714 196.103 167.863C197.326 162.915 198.831 157.797 200.613 152.502C208.399 141.768 225.837 148.984 222.954 161.098C291.075 132.788 368.312 186.848 344.894 266.195C352.28 265.637 356.45 271.478 353.694 279.018L353.694 279.02Z" fill="white"/>
</g>
<path d="M61.2006 154.096C71.6512 156.888 81.3865 162.019 91.0811 166.4C98.1605 169.499 105.288 172.094 112.897 170.761C115.335 170.342 117.743 169.533 120.094 168.458C120.73 168.164 121.483 168.444 121.773 169.081C122.026 169.638 121.843 170.283 121.367 170.629C119.114 172.272 116.551 173.59 113.791 174.428C99.9747 178.539 86.5107 170.045 74.2628 164.902C69.4397 162.734 64.5925 160.788 59.6612 159.093C56.5394 157.928 57.9345 153.307 61.2006 154.096Z" fill="#102973"/>
<path d="M277.416 301.157C252.738 294.366 229.159 278.572 210.807 256.49C187.218 228.107 183.31 195.778 198.138 151.669C198.223 151.417 198.345 151.18 198.501 150.966C203.577 143.969 211.926 143.556 217.534 146.138C222.321 148.339 225.317 152.49 225.801 157.176C259.851 144.616 297.92 151.258 323.83 174.58C335.738 185.299 344.292 198.971 348.563 214.116C352.971 229.74 352.876 246.425 348.283 263.758C351.057 264.263 353.411 265.641 355.005 267.749C357.397 270.916 357.813 275.348 356.146 279.913C355.016 283.006 352.935 285.866 350.127 288.181C331.341 303.681 306.281 308.491 279.567 301.723C278.849 301.542 278.131 301.352 277.416 301.155L277.416 301.157ZM202.953 153.732C188.927 195.722 192.593 226.398 214.822 253.144C233.007 275.024 256.452 290.476 280.852 296.657C305.914 303.006 329.339 298.564 346.809 284.149C348.899 282.424 350.432 280.34 351.243 278.121C352.288 275.259 352.142 272.629 350.84 270.906C349.669 269.356 347.626 268.607 345.087 268.799C344.232 268.862 343.4 268.504 342.861 267.836C342.322 267.168 342.146 266.277 342.388 265.453C352.338 231.743 344.3 200.039 320.338 178.47C294.936 155.606 257.103 149.737 223.953 163.514C223.046 163.89 222.006 163.726 221.259 163.091C220.513 162.454 220.186 161.451 220.413 160.495C221.565 155.659 218.554 152.363 215.352 150.889C211.578 149.154 206.331 149.386 202.954 153.731L202.953 153.732Z" fill="#102973"/>
<path d="M225.418 161.96C215.206 191.098 213.412 217.175 234.024 242.251C239.994 249.68 247.059 256.31 254.393 262.648C254.956 263.136 255.018 263.988 254.532 264.553C254.071 265.087 253.281 265.169 252.72 264.766C250.889 263.47 248.53 261.725 246.799 260.377C233.6 250.114 221.34 237.274 215.997 221.051C209.364 201.136 213.826 179.467 220.487 160.243C221.703 157.023 226.467 158.622 225.418 161.96Z" fill="#102973"/>
<g opacity="0.2">
<path d="M332.446 236.376C330.567 232.938 328.234 229.79 325.761 226.773C326.448 222.55 326.892 218.27 326.547 213.985C326.412 212.557 324.399 212.225 323.819 213.555C322.22 217.407 321.326 221.48 320.683 225.582L289.411 236.952C287.336 234.954 285.255 232.96 283.15 230.994C278.11 226.23 273.003 221.541 267.84 216.912C265.622 214.912 263.365 212.953 261.119 210.983L264.225 182.489L278.252 173.624C279.686 172.707 278.492 170.498 276.941 171.191L261.893 178.037C257.775 175.716 245.256 168.663 245.256 168.663C243.889 167.922 242.663 169.811 243.885 170.764C243.892 170.764 255.097 179.208 259.009 182.153L255.943 210.276C249.767 213.06 243.415 215.974 237.449 219.064C235.962 219.859 236.918 222.109 238.508 221.617C243.779 219.917 248.982 218.017 254.165 216.068C254.165 216.068 256.331 215.24 257.841 214.664C260.007 216.701 262.162 218.75 264.357 220.757C271.688 227.506 279.143 234.117 286.711 240.598C286.722 240.634 286.726 240.671 286.738 240.707C286.752 240.746 286.772 240.781 286.787 240.82C285.809 246.732 284.894 252.651 284.158 258.601C283.989 260.131 286.181 260.558 286.615 259.092C288.198 253.409 289.609 247.69 290.958 241.952L322.302 230.556C324.105 232.462 325.986 234.302 327.992 236.004C328.821 236.705 329.66 237.396 330.562 238.033C330.945 238.303 331.463 238.354 331.906 238.119C332.536 237.787 332.778 237.007 332.446 236.377L332.446 236.376Z" fill="white"/>
</g>
<path d="M279.932 171.424L264.685 181.059C263.838 181.594 262.781 181.521 262.024 180.954C262.017 180.957 245.573 168.562 245.565 168.562C244.341 167.622 245.58 165.711 246.936 166.461L264.874 176.568L262.206 176.456L278.62 168.987C280.171 168.295 281.365 170.504 279.931 171.421L279.932 171.424Z" fill="#102973"/>
<path d="M239.13 216.864C245.587 213.52 252.499 210.38 259.147 207.39C260.041 206.986 261.05 207.197 261.718 207.836C264.316 210.13 266.946 212.391 269.52 214.714C274.681 219.344 279.784 224.039 284.83 228.795C287.364 231.163 289.865 233.564 292.36 235.974C292.96 236.5 293.213 237.314 293.042 238.048C291.571 244.358 290.036 250.647 288.296 256.892C287.861 258.358 285.669 257.932 285.838 256.401C286.635 249.967 287.635 243.572 288.703 237.181L289.385 239.255C281.472 232.502 273.695 225.595 266.035 218.557C263.476 216.217 260.974 213.817 258.441 211.45L261.011 211.895L255.843 213.869C250.66 215.818 245.457 217.717 240.186 219.418C238.596 219.91 237.64 217.66 239.127 216.865L239.13 216.864Z" fill="#102973"/>
<path d="M259.384 212.162C258.17 211.828 257.344 210.653 257.485 209.359L260.851 178.477C261.008 177.042 262.297 176.004 263.73 176.16C265.169 176.317 266.199 177.606 266.042 179.041L262.675 209.923C262.519 211.358 261.23 212.396 259.797 212.241C259.655 212.225 259.517 212.198 259.384 212.162Z" fill="#102973"/>
<path d="M200.005 272.954L200.342 260.592C200.409 258.971 202.729 258.804 203.032 260.388L205.213 272.558C205.704 276.358 200.089 276.791 200.005 272.954Z" fill="#102973"/>
<g opacity="0.25">
<path d="M202.681 143.739C201.616 146.802 200.428 149.717 199.127 152.474C200.174 149.544 201.356 146.628 202.681 143.739Z" fill="#102973"/>
</g>
<path d="M126.517 148.515C136.557 151.278 147.282 144.118 150.474 132.522C153.665 120.926 148.113 109.286 138.074 106.523C128.034 103.76 117.308 110.921 114.117 122.517C110.926 134.112 116.478 145.752 126.517 148.515Z" fill="#00046A"/>
<path d="M136.84 130.312C140.113 131.213 143.691 128.583 144.832 124.438C145.973 120.293 144.244 116.203 140.97 115.302C137.697 114.401 134.119 117.031 132.978 121.176C131.837 125.321 133.566 129.411 136.84 130.312Z" fill="white"/>
<g opacity="0.2">
<path d="M122.172 137.807C123.985 138.306 126.08 136.437 126.852 133.632C127.624 130.827 126.78 128.148 124.967 127.65C123.154 127.151 121.059 129.02 120.287 131.825C119.515 134.63 120.359 137.308 122.172 137.807Z" fill="white"/>
</g>
<path d="M178.517 135.605C177.576 135.346 176.675 134.925 175.85 134.349C171.924 131.607 170.958 126.177 173.698 122.242C176.44 118.308 181.867 117.339 185.792 120.079C189.72 122.82 190.685 128.251 187.944 132.184C186.617 134.09 184.627 135.364 182.344 135.774C181.05 136.005 179.75 135.943 178.519 135.604L178.517 135.605ZM182.672 120.512C179.916 119.753 176.853 120.761 175.126 123.24C172.935 126.386 173.707 130.729 176.848 132.92C178.37 133.983 180.214 134.386 182.039 134.06C183.866 133.732 185.456 132.713 186.517 131.189C187.579 129.666 187.985 127.819 187.66 125.991C187.335 124.162 186.318 122.571 184.797 121.509C184.132 121.046 183.414 120.715 182.675 120.511L182.672 120.512Z" fill="#93C5FD"/>
<g opacity="0.6">
<path d="M179.783 126.114C181.589 125.721 182.861 124.52 182.626 123.432C182.39 122.345 180.735 121.782 178.929 122.176C177.124 122.57 175.851 123.77 176.087 124.858C176.322 125.945 177.977 126.508 179.783 126.114Z" fill="white"/>
</g>
<g opacity="0.6">
<path d="M184.966 124.319C184.676 124.736 184.103 124.838 183.687 124.548C183.27 124.257 183.168 123.684 183.459 123.267C183.749 122.849 184.322 122.747 184.738 123.037C185.155 123.328 185.257 123.901 184.966 124.319Z" fill="white"/>
</g>
<path d="M201.806 128.063C200.858 127.802 199.937 127.378 199.086 126.784C197.137 125.422 195.833 123.382 195.417 121.039C195 118.695 195.52 116.328 196.88 114.375C199.688 110.342 205.249 109.347 209.275 112.157C211.225 113.517 212.529 115.558 212.945 117.902C213.362 120.245 212.842 122.612 211.481 124.565C209.268 127.745 205.342 129.036 201.807 128.063L201.806 128.063ZM206.089 112.558C203.245 111.775 200.089 112.814 198.307 115.371C196.047 118.615 196.844 123.093 200.082 125.353C203.318 127.613 207.793 126.812 210.053 123.569C211.147 121.997 211.566 120.094 211.23 118.208C210.895 116.323 209.846 114.681 208.278 113.587C207.592 113.109 206.852 112.768 206.089 112.558Z" fill="#93C5FD"/>
<g opacity="0.6">
<path d="M203.373 118.348C205.179 117.954 206.451 116.753 206.216 115.666C205.98 114.578 204.325 114.016 202.519 114.409C200.714 114.803 199.441 116.004 199.677 117.091C199.913 118.179 201.567 118.741 203.373 118.348Z" fill="white"/>
</g>
<g opacity="0.6">
<path d="M208.557 116.554C208.267 116.971 207.694 117.073 207.277 116.783C206.861 116.493 206.759 115.919 207.049 115.502C207.34 115.085 207.912 114.982 208.329 115.273C208.746 115.563 208.847 116.137 208.557 116.554Z" fill="white"/>
</g>
<path d="M207.739 105.542C207.135 105.376 206.55 105.106 206.008 104.728C203.445 102.94 202.816 99.3964 204.603 96.8293C205.469 95.5858 206.768 94.7545 208.258 94.4879C209.747 94.2211 211.252 94.5512 212.493 95.4172C215.055 97.2045 215.684 100.748 213.897 103.314C212.488 105.338 209.989 106.16 207.74 105.541L207.739 105.542ZM210.292 96.2808C209.736 96.1279 209.147 96.0995 208.562 96.2045C207.531 96.3894 206.631 96.9656 206.031 97.827C204.793 99.6052 205.228 102.059 207.004 103.299C208.777 104.537 211.231 104.098 212.47 102.32C213.707 100.542 213.272 98.0882 211.496 96.8487C211.124 96.5892 210.718 96.3981 210.292 96.2808Z" fill="#93C5FD"/>
<g opacity="0.6">
<path d="M210.218 99.3917C209.741 100.077 208.8 100.246 208.116 99.7681C207.433 99.2905 207.266 98.349 207.742 97.6637C208.218 96.9785 209.16 96.8097 209.844 97.2873C210.528 97.7649 210.696 98.7068 210.218 99.3917Z" fill="white"/>
</g>
<path d="M191.385 106.017C190.896 105.882 190.422 105.664 189.984 105.358C187.911 103.91 187.4 101.044 188.847 98.9653C190.294 96.8874 193.16 96.376 195.232 97.822C197.305 99.2696 197.816 102.136 196.369 104.214C195.228 105.852 193.206 106.518 191.386 106.017L191.385 106.017ZM193.366 98.8436C192.236 98.5326 190.983 98.9458 190.274 99.9619C189.377 101.251 189.693 103.03 190.98 103.927C192.263 104.823 194.043 104.507 194.942 103.218C195.839 101.929 195.523 100.15 194.236 99.2523C193.964 99.0626 193.669 98.927 193.366 98.8436Z" fill="#93C5FD"/>
<g opacity="0.6">
<path d="M193.162 101.258C192.854 101.702 192.244 101.811 191.802 101.501C191.36 101.193 191.251 100.583 191.561 100.14C191.869 99.6964 192.479 99.587 192.921 99.8967C193.363 100.206 193.472 100.815 193.162 101.258Z" fill="white"/>
</g>
<path d="M199.668 49.6579C198.486 49.3324 197.5 48.5663 196.892 47.4997C196.283 46.4305 196.126 45.1875 196.45 44.0002C196.775 42.8129 197.541 41.8217 198.61 41.2104C199.679 40.599 200.92 40.4422 202.106 40.766L202.114 40.7682C204.557 41.4406 206.001 43.9766 205.331 46.427C205.007 47.6154 204.24 48.6055 203.172 49.2168C202.103 49.827 200.861 49.9862 199.676 49.6612L199.668 49.659L199.668 49.6579ZM201.807 41.8873L201.801 41.8857C200.914 41.6441 199.985 41.7619 199.186 42.2186C198.387 42.6754 197.813 43.4165 197.571 44.3048C197.07 46.1375 198.149 48.0337 199.977 48.5368L199.983 48.5384C200.869 48.7811 201.799 48.6622 202.598 48.2054C203.397 47.7487 203.97 47.0072 204.213 46.1192C204.714 44.2866 203.634 42.39 201.806 41.887L201.807 41.8873Z" fill="#93C5FD"/>
<g opacity="0.6">
<path d="M201.683 44.9674C201.501 45.6335 200.814 46.0269 200.149 45.845C199.484 45.6632 199.091 44.9751 199.273 44.3091C199.455 43.643 200.143 43.2496 200.808 43.4314C201.473 43.6132 201.866 44.3013 201.683 44.9674Z" fill="white"/>
</g>
<path d="M194.392 68.9713C193.328 68.6784 192.441 67.9889 191.893 67.0293C191.344 66.0668 191.203 64.9483 191.495 63.8794C192.099 61.6731 194.382 60.3671 196.586 60.9685L196.594 60.9707C198.793 61.5758 200.093 63.8582 199.49 66.0634C198.886 68.2709 196.602 69.577 194.399 68.9743L194.391 68.9721L194.392 68.9713ZM196.287 62.0898L196.282 62.0883C194.695 61.6553 193.05 62.5955 192.617 64.1844C192.405 64.9536 192.508 65.76 192.903 66.4525C193.297 67.1435 193.936 67.6398 194.702 67.8505L194.708 67.8521C196.294 68.2862 197.939 67.346 198.372 65.756C198.806 64.1683 197.871 62.5244 196.288 62.0887L196.287 62.0898Z" fill="#93C5FD"/>
<g opacity="0.6">
<path d="M196.5 63.9385C196.397 64.311 196.014 64.531 195.642 64.4286C195.27 64.3262 195.051 63.943 195.154 63.5705C195.256 63.1979 195.639 62.978 196.011 63.0804C196.383 63.1827 196.602 63.5659 196.5 63.9385Z" fill="white"/>
</g>
<path d="M192.371 145.249C191.951 145.134 191.543 144.946 191.165 144.682C189.381 143.437 188.943 140.97 190.187 139.182C191.431 137.396 193.895 136.955 195.68 138.199C197.464 139.445 197.902 141.912 196.659 143.7C195.678 145.108 193.937 145.68 192.371 145.249ZM194.166 138.754C193.06 138.449 191.833 138.854 191.139 139.848C190.261 141.109 190.571 142.85 191.83 143.73C193.089 144.61 194.829 144.297 195.707 143.036C196.586 141.773 196.276 140.033 195.017 139.154C194.751 138.968 194.462 138.835 194.166 138.754Z" fill="#93C5FD"/>
<g opacity="0.6">
<path d="M194.646 141.162C194.28 141.686 193.561 141.814 193.039 141.449C192.516 141.084 192.388 140.363 192.753 139.84C193.118 139.318 193.837 139.188 194.36 139.553C194.883 139.918 195.011 140.639 194.646 141.162Z" fill="white"/>
</g>
<path d="M219.749 119.931C219.385 119.831 219.031 119.668 218.705 119.44C217.158 118.36 216.778 116.222 217.857 114.672C218.935 113.122 221.075 112.742 222.619 113.819C224.166 114.899 224.547 117.038 223.469 118.588C222.617 119.809 221.109 120.305 219.75 119.932L219.749 119.931ZM221.109 115.008C220.442 114.824 219.702 115.068 219.283 115.668C218.753 116.429 218.939 117.48 219.7 118.009C220.459 118.54 221.509 118.351 222.039 117.59C222.568 116.829 222.381 115.779 221.622 115.249C221.461 115.137 221.288 115.057 221.109 115.008Z" fill="#93C5FD"/>
<g opacity="0.6">
<path d="M220.801 116.867C221.325 116.914 221.787 116.527 221.835 116.003C221.882 115.479 221.496 115.016 220.973 114.969C220.45 114.922 219.987 115.309 219.939 115.833C219.892 116.357 220.278 116.82 220.801 116.867Z" fill="white"/>
</g>
</g>
</svg>
